<?xml version="1.0" encoding="UTF-8" standalone="no"?>
<!-- Generated by IcoMoon.io -->

<svg
   xmlns:dc="http://purl.org/dc/elements/1.1/"
   xmlns:cc="http://creativecommons.org/ns#"
   xmlns:rdf="http://www.w3.org/1999/02/22-rdf-syntax-ns#"
   xmlns:svg="http://www.w3.org/2000/svg"
   xmlns="http://www.w3.org/2000/svg"
   xmlns:sodipodi="http://sodipodi.sourceforge.net/DTD/sodipodi-0.dtd"
   xmlns:inkscape="http://www.inkscape.org/namespaces/inkscape"
   version="1.1"
   width="16"
   height="28"
   viewBox="0 0 16 28"
   id="svg4809"
   sodipodi:docname="heart-marker.svg"
   inkscape:version="0.92pre3 r">
  <metadata
     id="metadata4815">
    <rdf:RDF>
      <cc:Work
         rdf:about="">
        <dc:format>image/svg+xml</dc:format>
        <dc:type
           rdf:resource="http://purl.org/dc/dcmitype/StillImage" />
        <dc:title></dc:title>
      </cc:Work>
    </rdf:RDF>
  </metadata>
  <defs
     id="defs4813" />
  <sodipodi:namedview
     pagecolor="#ffffff"
     bordercolor="#666666"
     borderopacity="1"
     objecttolerance="10"
     gridtolerance="10"
     guidetolerance="10"
     inkscape:pageopacity="0"
     inkscape:pageshadow="2"
     inkscape:window-width="1920"
     inkscape:window-height="1016"
     id="namedview4811"
     showgrid="true"
     showguides="true"
     inkscape:zoom="25.554981"
     inkscape:cx="0.056343242"
     inkscape:cy="13.949995"
     inkscape:window-x="0"
     inkscape:window-y="27"
     inkscape:window-maximized="1"
     inkscape:current-layer="svg4809">
    <inkscape:grid
       type="xygrid"
       id="grid4867" />
  </sodipodi:namedview>
  <path
     d="M 7.9980469 2 C 3.5760469 2 -0.001953125 5.578 -0.001953125 10 C -0.001953125 10.953 0.109625 11.937875 0.515625 12.796875 L 6.21875 24.890625 C 6.53075 25.577625 7.2480469 26 7.9980469 26 C 8.7480469 26 9.468875 25.578625 9.796875 24.890625 L 15.484375 12.796875 C 15.891375 11.936875 16 10.953 16 10 L 15.998047 10 C 15.998047 5.578 12.420047 2 7.9980469 2 z M 5.6679688 5.7949219 C 6.6443973 5.7949219 7.5592846 6.5646488 8 7 C 8.4407154 6.5646488 9.3556026 5.7949219 10.332031 5.7949219 C 12.000605 5.7949219 13 6.7708948 13 8.40625 C 13 9.7455418 11.773011 10.867969 11.722656 10.917969 L 8.2460938 14.265625 C 8.1792878 14.332405 8.0892846 14.365234 8 14.365234 C 7.91072 14.365234 7.8210438 14.332425 7.7539062 14.265625 L 4.2734375 10.90625 C 4.2287875 10.867368 3 9.7455418 3 8.40625 C 3 6.771252 3.9994027 5.7949219 5.6679688 5.7949219 z "
     id="path4807" />
</svg>
